# File produced by Open Asset Import Library (http://www.assimp.sf.net)
# (assimp v5.2.2765304118)

mtllib ШНГ46-60.mtl

# 72 vertex positions
v 584 0 2.84217094e-13
v 584 0 16.5
v 584 459.959473 16.5
v 584 459.959473 2.84217094e-13
v 584 459.959473 444
v 584 459.959473 20
v 584 0 20
v 584 0 444
v 594 0 16.5
v 600 0 2.77111667e-13
v 594 0 20
v 600 0 444
v 600 459.959473 2.77111667e-13
v 594 459.959473 16.5
v 600 459.959473 444
v 594 459.959473 20
v 16 0 444
v 16 0 20
v 16 459.959473 20
v 16 459.959473 444
v 16 459.959473 2.84217094e-13
v 16 459.959473 16.5
v 16 0 16.5
v 16 0 2.84217094e-13
v 6 0 16.5
v 6 0 20
v 0 0 444
v 0 0 2.84217094e-13
v 6 459.959473 20
v 6 459.959473 16.5
v 0 459.959473 2.84217094e-13
v 0 459.959473 444
v 584 16 20
v 16 16 20
v 16 16 444
v 584 16 444
v 16 16 3.97903932e-13
v 16 16 16.5
v 584 16 16.5
v 584 16 3.97903932e-13
v 16 6 20
v 16 6 16.5
v 16 -4.54747351e-13 3.97903932e-13
v 16 -4.54747351e-13 444
v 584 6 16.5
v 584 6 20
v 584 -4.54747351e-13 444
v 584 -4.54747351e-13 3.97903932e-13
v 584 459.959351 444
v 584 443.959351 444
v 584 443.959351 20
v 584 459.959351 20
v 16 443.959351 20
v 16 459.959351 20
v 16 443.959351 444
v 16 459.959351 444
v 1.49999738 1.5 460
v 1.49999738 1.5 444
v 598.799988 1.5 444
v 598.799988 1.5 460
v 598.799988 458.459351 444
v 598.799988 458.459351 460
v 1.49999738 458.459351 444
v 1.49999738 458.459351 460
v 591 9 20
v 591 9 16.5
v 591 457.959473 16.5
v 591 457.959473 20
v 9 457.959473 16.5
v 9 457.959473 20
v 9 9 16.5
v 9 9 20

# 93 UV coordinates
vt 0.187000006 -1.01481323e-16 0
vt 0.195250005 -1.01481323e-16 0
vt 0.195250005 -0.229979739 0
vt 0.187000006 -0.229979739 0
vt 0.409000009 -0.229979739 0
vt 0.196999997 -0.229979739 0
vt 0.196999997 -1.01481323e-16 0
vt 0.409000009 -1.01481323e-16 0
vt 1.308798e-17 -0.213750005 0
vt 1.35931301e-17 -0.222000003 0
vt -0.00499999989 -0.213750005 0
vt -0.00800000038 -0.222000003 0
vt -0.00499999989 -0.211999997 0
vt -0.00800000038 -4.89842555e-19 0
vt 1.29808271e-17 -0.211999997 0
vt 0 0 0
vt 5.05150101e-19 -0.00824999996 0
vt -0.00499999989 -0.00824999996 0
vt -0.00499999989 -0.00999999978 0
vt 6.12303181e-19 -0.00999999978 0
vt 0.204500005 1.03499997 0
vt 0.204500005 0.805020332 0
vt 0.202749997 0.805020332 0
vt 0.202749997 1.03499997 0
vt 0.199499995 0.805020332 0
vt 0.199499995 1.03499997 0
vt 1.40817292e-17 -0.229979679 0
vt -0.00800000038 -0.229979679 0
vt -1.83447008e-16 -1.01481323e-16 0
vt 0.222000003 -1.01481323e-16 0
vt 0.222000003 -0.229979739 0
vt -1.83447008e-16 -0.229979739 0
vt 0.211999997 -1.01481323e-16 0
vt 0.211999997 -0.229979739 0
vt 0.213750005 -0.229979739 0
vt 0.213750005 -1.01481323e-16 0
vt -0.00800000038 -0.213750005 0
vt -0.00300000003 -0.213750005 0
vt -0.00800000038 -0.211999997 0
vt -0.00300000003 -0.211999997 0
vt -0.00800000038 -0.00999999978 0
vt -0.00300000003 -0.00999999978 0
vt -0.00800000038 -0.00824999996 0
vt -0.00300000003 -0.00824999996 0
vt -0.211999997 -0.284000009 0
vt -0.211999997 7.75204553e-18 0
vt 8.10000667e-17 2.07353665e-17 0
vt 9.8387959e-17 -0.284000009 0
vt -0.222000003 7.12862928e-18 0
vt -0.213750005 7.64362532e-18 0
vt -0.213750005 -0.284000009 0
vt -0.222000003 -0.284000009 0
vt 0.287 -0.225999996 0
vt 0.287 0.0579999983 0
vt 0.291999996 0.0579999983 0
vt 0.291999996 -0.225999996 0
vt -0.225999996 -0.290250003 0
vt 0.0579999983 -0.290250003 0
vt 0.0579999983 -0.291999996 0
vt -0.225999996 -0.291999996 0
vt 1.7389411e-17 -0.284000009 0
vt -0.00800000038 -0.284000009 0
vt -0.222000003 -0.300000012 0
vt 9.93705172e-17 -0.300000012 0
vt 1.1675841e-16 -0.583999991 0
vt -0.222000003 -0.583999991 0
vt -0.211999997 -0.300000012 0
vt -0.211999997 -0.583999991 0
vt 1.82864338e-17 -0.298649997 0
vt -0.00800000038 -0.298649997 0
vt 1.39898824e-17 -0.228479668 0
vt -0.00800000038 -0.228479668 0
vt -0.220649943 2.03613168e-16 0
vt 0.0780000463 2.03613168e-16 0
vt 0.0780000463 -0.228479668 0
vt -0.220649943 -0.228479668 0
vt -1.29671096e-09 -0.228479668 0
vt -1.29671096e-09 2.03613168e-16 0
vt 0.298649997 2.03613168e-16 0
vt 0.298649997 -0.228479668 0
vt -0.00350000011 -2.14306108e-19 0
vt 2.74899233e-17 -0.448959351 0
vt -0.00350000011 -0.448959351 0
vt 3.56360459e-17 -0.582000017 0
vt -0.00350000011 -0.582000017 0
vt -2.94899988 -0.44895947 0
vt -2.94899988 1.37910516e-16 0
vt -2.3670001 1.37910516e-16 0
vt -2.3670001 -0.44895947 0
vt -6.15964779e-11 1.37910516e-16 0
vt 0.582000017 1.37910516e-16 0
vt 0.582000017 -0.44895947 0
vt -6.15964779e-11 -0.44895947 0

# 19 vertex normals
vn -1 0 2.22044605e-16
vn 0 -1 0
vn 0 1 0
vn -2.22044605e-16 0 -1
vn 2.22044605e-16 0 1
vn 2.22044605e-16 -1.23583563e-16 1
vn 1 0 -2.22044605e-16
vn 3.83566635e-33 1 2.22044605e-16
vn -1 3.83566635e-33 1.35958617e-32
vn 1 -2.82238696e-34 -1.60032152e-17
vn 1.35958617e-32 -2.22044605e-16 1
vn -1.35958617e-32 2.22044605e-16 -1
vn 2.50191099e-17 -2.22044605e-16 1
vn -3.83566635e-33 -1 -2.22044605e-16
vn 1 -1.14624222e-34 -1.67580836e-17
vn 1 0 0
vn -1 0 0
vn 0 0 -1
vn 0 0 1

# Mesh '' with 2 faces
usemtl ДСП Белый Базовый 16 мм W908 SM
f  1/1/1 2/2/1 3/3/1
f  4/4/1 1/1/1 3/3/1

# Mesh '' with 2 faces
usemtl ДСП Белый Базовый 16 мм W908 SM
f  5/5/1 6/6/1 7/7/1
f  8/8/1 5/5/1 7/7/1

# Mesh '' with 6 faces
usemtl ПВХ 1/22 в цв.
f  2/9/2 1/10/2 9/11/2
f  1/10/2 10/12/2 9/11/2
f  9/11/2 10/12/2 11/13/2
f  10/12/2 12/14/2 11/13/2
f  11/13/2 12/14/2 7/15/2
f  12/14/2 8/16/2 7/15/2

# Mesh '' with 6 faces
usemtl ПВХ 1/22 в цв.
f  4/16/3 3/17/3 13/14/3
f  3/17/3 14/18/3 13/14/3
f  13/14/3 14/18/3 15/12/3
f  14/18/3 16/19/3 15/12/3
f  15/12/3 16/19/3 5/10/3
f  16/19/3 6/20/3 5/10/3

# Mesh '' with 2 faces
usemtl ДСП Белый Базовый 16 мм W908 SM
f  11/21/1 16/22/1 14/23/1
f  9/24/1 11/21/1 14/23/1

# Mesh '' with 2 faces
usemtl ДСП Белый Базовый 16 мм W908 SM
f  7/21/4 6/22/4 16/25/4
f  11/26/4 7/21/4 16/25/4

# Mesh '' with 2 faces
usemtl ДСП Белый Базовый 16 мм W908 SM
f  9/21/5 14/22/5 3/25/5
f  2/26/5 9/21/5 3/25/5

# Mesh '' with 2 faces
usemtl ПВХ 1/22 в цв.
f  10/14/4 1/16/4 4/27/4
f  10/14/4 4/27/4 13/28/4

# Mesh '' with 2 faces
usemtl ПВХ 1/22 в цв.
f  15/14/6 5/16/6 8/27/6
f  15/14/6 8/27/6 12/28/6

# Mesh '' with 2 faces
usemtl ДСП Белый Базовый 16 мм W908 SM
f  12/29/7 10/30/7 13/31/7
f  12/29/7 13/31/7 15/32/7

# Mesh '' with 2 faces
usemtl ДСП Белый Базовый 16 мм W908 SM
f  17/29/7 18/33/7 19/34/7
f  17/29/7 19/34/7 20/32/7

# Mesh '' with 2 faces
usemtl ДСП Белый Базовый 16 мм W908 SM
f  21/31/7 22/35/7 23/36/7
f  21/31/7 23/36/7 24/30/7

# Mesh '' with 6 faces
usemtl ПВХ 1/22 в цв.
f  23/37/2 25/38/2 24/12/2
f  18/39/2 17/14/2 26/40/2
f  17/14/2 27/16/2 26/40/2
f  27/16/2 28/10/2 26/40/2
f  26/40/2 28/10/2 25/38/2
f  28/10/2 24/12/2 25/38/2

# Mesh '' with 6 faces
usemtl ПВХ 1/22 в цв.
f  19/41/3 29/42/3 20/12/3
f  22/43/3 21/14/3 30/44/3
f  21/14/3 31/16/3 30/44/3
f  31/16/3 32/10/3 30/44/3
f  30/44/3 32/10/3 29/42/3
f  32/10/3 20/12/3 29/42/3

# Mesh '' with 2 faces
usemtl ДСП Белый Базовый 16 мм W908 SM
f  23/21/5 22/22/5 30/25/5
f  25/26/5 23/21/5 30/25/5

# Mesh '' with 2 faces
usemtl ДСП Белый Базовый 16 мм W908 SM
f  26/21/4 29/22/4 19/25/4
f  18/26/4 26/21/4 19/25/4

# Mesh '' with 2 faces
usemtl ДСП Белый Базовый 16 мм W908 SM
f  25/21/7 30/22/7 29/23/7
f  26/24/7 25/21/7 29/23/7

# Mesh '' with 2 faces
usemtl ПВХ 1/22 в цв.
f  20/14/6 32/16/6 27/27/6
f  20/14/6 27/27/6 17/28/6

# Mesh '' with 2 faces
usemtl ПВХ 1/22 в цв.
f  24/14/4 28/16/4 31/27/4
f  24/14/4 31/27/4 21/28/4

# Mesh '' with 2 faces
usemtl ДСП Белый Базовый 16 мм W908 SM
f  31/4/1 28/1/1 27/8/1
f  32/5/1 31/4/1 27/8/1

# Mesh '' with 2 faces
usemtl ДСП Белый Базовый 16 мм W908 SM
f  33/45/8 34/46/8 35/47/8
f  33/45/8 35/47/8 36/48/8

# Mesh '' with 2 faces
usemtl ДСП Белый Базовый 16 мм W908 SM
f  37/49/8 38/50/8 39/51/8
f  37/49/8 39/51/8 40/52/8

# Mesh '' with 6 faces
usemtl ДСП Белый Базовый 16 мм W908 SM
f  34/41/9 41/42/9 35/12/9
f  38/43/9 37/14/9 42/44/9
f  37/14/9 43/16/9 42/44/9
f  43/16/9 44/10/9 42/44/9
f  42/44/9 44/10/9 41/42/9
f  44/10/9 35/12/9 41/42/9

# Mesh '' with 6 faces
usemtl ДСП Белый Базовый 16 мм W908 SM
f  39/37/10 45/38/10 40/12/10
f  33/39/10 36/14/10 46/40/10
f  36/14/10 47/16/10 46/40/10
f  47/16/10 48/10/10 46/40/10
f  46/40/10 48/10/10 45/38/10
f  48/10/10 40/12/10 45/38/10

# Mesh '' with 2 faces
usemtl ДСП Белый Базовый 16 мм W908 SM
f  42/53/11 45/54/11 39/55/11
f  38/56/11 42/53/11 39/55/11

# Mesh '' with 2 faces
usemtl ДСП Белый Базовый 16 мм W908 SM
f  34/53/12 33/54/12 46/55/12
f  41/56/12 34/53/12 46/55/12

# Mesh '' with 2 faces
usemtl ДСП Белый Базовый 16 мм W908 SM
f  41/57/8 46/58/8 45/59/8
f  42/60/8 41/57/8 45/59/8

# Mesh '' with 2 faces
usemtl ПВХ 1/22 в цв.
f  35/14/13 44/16/13 47/61/13
f  35/14/13 47/61/13 36/62/13

# Mesh '' with 2 faces
usemtl ПВХ 1/22 в цв.
f  40/14/12 48/16/12 43/61/12
f  40/14/12 43/61/12 37/62/12

# Mesh '' with 2 faces
usemtl ДСП Белый Базовый 16 мм W908 SM
f  48/63/14 47/64/14 44/65/14
f  43/66/14 48/63/14 44/65/14

# Mesh '' with 2 faces
usemtl ДСП Белый Базовый 16 мм W908 SM
f  49/14/15 50/16/15 51/15/15
f  49/14/15 51/15/15 52/39/15

# Mesh '' with 2 faces
usemtl ДСП Белый Базовый 16 мм W908 SM
f  52/14/12 51/16/12 53/61/12
f  52/14/12 53/61/12 54/62/12

# Mesh '' with 2 faces
usemtl ДСП Белый Базовый 16 мм W908 SM
f  54/14/9 53/16/9 55/15/9
f  54/14/9 55/15/9 56/39/9

# Mesh '' with 2 faces
usemtl ПВХ 1/22 в цв.
f  56/14/13 55/16/13 50/61/13
f  56/14/13 50/61/13 49/62/13

# Mesh '' with 2 faces
usemtl ДСП Белый Базовый 16 мм W908 SM
f  51/67/14 50/64/14 55/65/14
f  53/68/14 51/67/14 55/65/14

# Mesh '' with 2 faces
usemtl ДСП Белый Базовый 16 мм W908 SM
f  56/47/8 49/48/8 52/45/8
f  56/47/8 52/45/8 54/46/8

# Mesh '' with 2 faces
usemtl ПВХ 1/22 в цв.
f  57/14/2 58/16/2 59/69/2
f  57/14/2 59/69/2 60/70/2

# Mesh '' with 2 faces
usemtl ПВХ 1/22 в цв.
f  60/14/16 59/16/16 61/71/16
f  60/14/16 61/71/16 62/72/16

# Mesh '' with 2 faces
usemtl ПВХ 1/22 в цв.
f  62/14/3 61/16/3 63/69/3
f  62/14/3 63/69/3 64/70/3

# Mesh '' with 2 faces
usemtl ПВХ 1/22 в цв.
f  64/14/17 63/16/17 58/71/17
f  64/14/17 58/71/17 57/72/17

# Mesh '' with 2 faces
usemtl ДСП 0112 Серый Krono 16 мм
f  59/73/18 58/74/18 63/75/18
f  61/76/18 59/73/18 63/75/18

# Mesh '' with 2 faces
usemtl ДСП 0112 Серый Krono 16 мм
f  64/77/19 57/78/19 60/79/19
f  64/77/19 60/79/19 62/80/19

# Mesh '' with 2 faces
usemtl ХДФ крашенная белая (толщина 3,5мм)
f  65/81/16 66/16/16 67/82/16
f  65/81/16 67/82/16 68/83/16

# Mesh '' with 2 faces
usemtl ХДФ крашенная белая (толщина 3,5мм)
f  68/81/3 67/16/3 69/84/3
f  68/81/3 69/84/3 70/85/3

# Mesh '' with 2 faces
usemtl ХДФ крашенная белая (толщина 3,5мм)
f  70/81/17 69/16/17 71/82/17
f  70/81/17 71/82/17 72/83/17

# Mesh '' with 2 faces
usemtl ХДФ крашенная белая (толщина 3,5мм)
f  72/81/2 71/16/2 66/84/2
f  72/81/2 66/84/2 65/85/2

# Mesh '' with 2 faces
usemtl ХДФ крашенная белая (толщина 3,5мм)
f  67/86/18 66/87/18 71/88/18
f  69/89/18 67/86/18 71/88/18

# Mesh '' with 2 faces
usemtl ХДФ крашенная белая (толщина 3,5мм)
f  72/90/19 65/91/19 68/92/19
f  72/90/19 68/92/19 70/93/19

